<svg width="22" height="22" viewBox="0 0 22 22" fill="none" xmlns="http://www.w3.org/2000/svg">
<path d="M10.5 2C8.81886 2 7.17547 2.49852 5.77766 3.43251C4.37984 4.3665 3.29037 5.69402 2.64703 7.24719C2.00368 8.80036 1.83535 10.5094 2.16333 12.1583C2.4913 13.8071 3.30085 15.3217 4.4896 16.5104C5.67834 17.6992 7.1929 18.5087 8.84173 18.8367C10.4906 19.1646 12.1996 18.9963 13.7528 18.353C15.306 17.7096 16.6335 16.6202 17.5675 15.2223C18.5015 13.8245 19 12.1811 19 10.5C19 8.24566 18.1045 6.08365 16.5104 4.48959C14.9163 2.89553 12.7543 2 10.5 2V2ZM9.24767 7.1L7.17934 10.024C7.40507 10.1185 7.63819 10.1943 7.87634 10.2507C7.87634 10.2507 12.234 8.25033 12.234 10.9987C12.234 13.747 9.259 17.0393 8.936 17.1017C8.78651 17.1159 8.63651 17.0803 8.5094 17.0003C8.38229 16.9204 8.28522 16.8006 8.23334 16.6597C8.07467 16.3763 8.409 14.2343 8.23334 13.8773C8.05767 13.5203 7.66667 13.56 7.43434 13.2483C7.17283 12.9554 7.00679 12.5897 6.95834 12.2C6.97205 11.8236 7.06066 11.4537 7.219 11.112C5.84027 10.5281 4.67071 9.54027 3.86434 8.27867C3.92667 8.05767 3.99467 7.848 4.06834 7.644C4.60014 6.44994 5.45372 5.42743 6.53356 4.69085C7.61339 3.95428 8.87689 3.53272 10.1827 3.47333C10.2838 3.50528 10.3824 3.54506 10.4773 3.59233C10.3243 3.7 9.46867 4.26667 10.347 4.83333C10.6819 5.00181 10.9626 5.261 11.1573 5.58133C11.418 6.19333 10.432 6.51633 10.024 6.74867C7.457 8.21633 6.71467 8.23333 6.624 9.01533C6.59477 9.21868 6.63332 9.42599 6.73369 9.60523C6.83407 9.78447 6.99069 9.92567 7.17934 10.007L9.24767 7.1ZM15.3337 6.76C15.3661 6.68878 15.3835 6.6116 15.3847 6.53333C15.3847 6.21033 14.8747 6.06867 14.7103 5.808C14.546 5.54733 14.7783 5.30367 15.0787 5.145C16.1704 6.06988 16.9515 7.30785 17.3164 8.69134C17.6813 10.0748 17.6122 11.537 17.1187 12.88C16.9827 11.18 16.3083 11.384 16.3083 11.384C15.8764 11.4715 15.4282 11.4258 15.0228 11.2529C14.6175 11.0801 14.2742 10.7882 14.0383 10.416C13.8024 10.0438 13.6851 9.60873 13.7019 9.16839C13.7187 8.72804 13.8688 8.30318 14.1323 7.95C14.4667 7.53067 15.1127 7.24167 15.3337 6.76Z" fill="#231F20"/>
</svg>
