<svg width="218" height="242" viewBox="0 0 218 242" fill="none" xmlns="http://www.w3.org/2000/svg">
<path fill-rule="evenodd" clip-rule="evenodd" d="M129.277 241.737C122.819 240.818 120.847 240.411 120.241 239.872C119.793 239.473 116.787 238.554 114.813 238.212C114.298 238.123 112.992 237.589 111.911 237.026C110.829 236.462 109.652 236.002 109.294 236.002C108.395 236.002 100.106 232.061 99.3729 231.285C99.0451 230.938 98.4364 230.648 98.0202 230.639C97.6036 230.631 96.8691 230.303 96.388 229.91C95.9064 229.518 95.13 229.196 94.6624 229.196C94.1948 229.196 92.6789 228.322 91.2933 227.252C89.9082 226.183 88.4527 225.307 88.059 225.307C87.6654 225.306 86.6333 224.65 85.7653 223.85C84.8974 223.049 83.9645 222.393 83.6926 222.392C83.4207 222.392 82.7299 221.954 82.1582 221.419C81.5864 220.884 80.9534 220.447 80.7514 220.447C80.5498 220.447 79.3586 219.464 78.1042 218.263C76.8498 217.062 75.0169 215.636 74.0308 215.094C73.0451 214.552 72.2385 213.888 72.2385 213.62C72.2385 213.351 71.742 212.928 71.1347 212.679C70.5278 212.43 69.6927 211.67 69.2792 210.99C68.8658 210.31 68.2417 209.753 67.8918 209.753C67.5424 209.753 67.0635 209.206 66.8277 208.538C66.5919 207.87 66.1739 207.323 65.8989 207.323C65.6238 207.323 63.8919 205.682 62.05 203.677C60.2081 201.672 58.5556 200.031 58.3779 200.031C58.2003 200.031 57.3251 199.211 56.4328 198.209C55.5404 197.206 53.6715 195.268 52.2791 193.901C50.8867 192.535 49.0868 190.347 48.2797 189.041C47.4721 187.733 46.5509 186.492 46.2326 186.281C45.9147 186.07 45.1816 184.867 44.604 183.608C42.6367 179.318 41.4869 177.185 41.1415 177.185C40.7024 177.185 37.9704 170.635 37.9704 169.583C37.9704 169.148 37.5754 168.104 37.092 167.262C36.6091 166.42 36.0974 165.015 35.9544 164.142C35.812 163.268 35.5103 162.182 35.2844 161.727C35.0585 161.273 34.6135 159.863 34.2947 158.593C33.9759 157.323 33.557 156.284 33.3631 156.284C33.1693 156.284 33.0105 155.76 33.0105 155.12C33.0105 154.026 31.6101 148.464 30.7948 146.319C30.4463 145.402 29.655 142.287 29.1617 139.891C29.039 139.297 28.7117 138.203 28.4335 137.461C28.1557 136.718 27.7657 134.252 27.5678 131.98C27.3694 129.707 26.9794 126.317 26.7016 124.445C26.0041 119.748 25.8142 114.781 25.6339 96.4953C25.5135 84.2669 25.6222 79.9286 26.1154 77.295C26.4662 75.4236 26.9262 72.8872 27.1381 71.6588C27.6498 68.6913 28.7992 64.5168 29.6009 62.7124C29.9575 61.9104 30.9495 59.1762 31.8053 56.6364C33.6846 51.0581 33.6134 51.2331 35.4034 47.7969C39.4015 40.1226 40.7934 37.6791 41.1672 37.6791C41.3931 37.6791 41.5776 37.3748 41.5776 37.0024C41.5776 36.6306 42.4906 35.2312 43.6066 33.893C44.7226 32.5548 45.6356 31.2598 45.6356 31.0153C45.6356 30.7704 47.1412 28.9432 48.9817 26.9551C54.3077 21.2003 55.8182 19.6939 56.2646 19.693C56.4945 19.6925 57.7985 18.8248 59.1625 17.7647C60.5264 16.7045 62.5555 15.3683 63.6714 14.7947C64.7874 14.2211 66.0066 13.4623 66.3809 13.108C66.7551 12.7541 67.6506 12.3492 68.3707 12.2082C69.0912 12.0673 69.8906 11.7256 70.1477 11.4485C70.4051 11.1709 70.9557 10.9444 71.3718 10.9444C71.7876 10.9444 72.3629 10.6392 72.6501 10.2663C72.9373 9.89302 73.9262 9.43561 74.8473 9.24993C76.3655 8.94369 77.7078 8.38858 82.0008 6.29161C82.7822 5.90955 83.9622 5.59748 84.6232 5.59748C85.2838 5.59748 86.2676 5.32722 86.8096 4.99717C87.3511 4.66664 89.8234 4.02403 92.3033 3.56857C94.7832 3.1136 97.8268 2.49723 99.0668 2.19926C105.198 0.725454 113.166 -0.149492 118.906 0.0211236C125.784 0.225279 139.242 3.40621 145.96 6.41508C150.472 8.43671 158.81 12.949 158.81 13.37C158.81 13.9061 164.253 18.2357 164.927 18.2357C165.222 18.2357 165.729 18.5798 166.052 19.0003C166.376 19.4208 167.423 20.1956 168.381 20.722C169.337 21.248 170.923 22.5443 171.905 23.6026C172.887 24.6612 173.863 25.527 174.073 25.527C174.284 25.527 175.552 26.8851 176.891 28.5451C178.23 30.205 180.192 32.424 181.25 33.4759C183.723 35.9335 186.218 41.3325 185.473 42.6167C184.829 43.7294 184.832 43.7882 185.587 44.6024C186.395 45.4735 188.361 50.1151 188.765 52.1066C188.937 52.9567 189.37 53.9133 189.726 54.2317C190.082 54.5506 190.373 55.1052 190.373 55.4644C190.373 56.1017 190.801 57.2668 192.858 62.2264C193.412 63.5631 194.114 65.4224 194.418 66.3581C194.722 67.2938 195.552 69.8093 196.263 71.9481C196.975 74.0868 197.564 76.1731 197.572 76.5848C197.581 76.996 197.985 78.1724 198.47 79.1995C198.956 80.2261 199.491 82.0547 199.659 83.2622C199.827 84.4701 200.24 86.0275 200.576 86.7236C200.913 87.4196 201.19 88.7962 201.192 89.783C201.193 90.7697 201.37 91.6943 201.585 91.8372C201.799 91.9801 202.091 92.9226 202.233 93.9317C202.376 94.9408 202.81 97.7349 203.199 100.141C203.587 102.547 204.047 107.906 204.221 112.05C204.685 123.082 204.524 144.225 203.941 148.993C203.664 151.265 203.337 154.765 203.216 156.77C203.095 158.775 202.675 161.619 202.284 163.089C201.892 164.559 201.459 166.309 201.322 166.978C201.186 167.646 200.916 168.412 200.723 168.679C200.531 168.946 200.227 170.04 200.049 171.109C199.871 172.179 199.142 174.334 198.431 175.899C197.719 177.463 197.137 179.049 197.137 179.422C197.137 179.796 196.598 181.25 195.939 182.653C194.024 186.738 193.529 187.926 193.529 188.449C193.529 188.72 193.124 189.497 192.628 190.177C192.132 190.857 191.726 191.79 191.726 192.251C191.726 192.712 191.131 194.378 190.404 195.953C189.676 197.528 188.439 200.347 187.653 202.219C184.916 208.736 184.329 210 183.746 210.638C183.423 210.992 183.159 211.679 183.159 212.167C183.159 212.655 182.655 213.569 182.039 214.198C181.424 214.828 180.916 215.578 180.912 215.865C180.889 217.42 167.924 230.314 164.672 232.017C164.052 232.341 162.835 233.064 161.967 233.623C157.559 236.46 151.291 239.38 149.567 239.4C149.071 239.406 148.07 239.745 147.343 240.154C144.828 241.567 134.468 242.475 129.277 241.737Z" fill="#F5F5F5"/>
<path fill-rule="evenodd" clip-rule="evenodd" d="M52.9408 40.6508C52.9408 41.2966 47.4084 47.4018 46.8235 47.4018C46.544 47.4018 46.565 46.7776 46.8716 45.9719C47.9103 43.24 46.5213 42.7785 43.8995 44.9847L42.1692 46.4406L41.8039 44.6566C41.2661 42.0254 40.5556 41.5611 38.9254 42.7741C37.2172 44.0457 35.7867 46.3681 35.7867 47.871C35.7867 48.4914 35.2262 49.3939 34.5417 49.8764C33.3154 50.7402 33.2922 50.7181 33.0199 48.3906C32.8312 46.7798 32.4527 45.973 31.8302 45.8552C31.1413 45.7246 30.6139 46.6083 29.6865 49.447C29.0098 51.5177 28.2605 53.4257 28.0215 53.6874C27.783 53.9486 27.4111 52.517 27.1958 50.5056C26.9219 47.9491 26.5739 46.8484 26.0388 46.8484C25.4694 46.8484 25.2729 47.7233 25.2729 50.2544C25.2729 53.5186 25.2309 53.6221 24.2608 52.7445C23.7042 52.2409 22.8326 51.8287 22.3241 51.8287C21.8155 51.8287 21.3994 51.4369 21.3994 50.9582C21.3994 50.4281 21.0209 50.1592 20.431 50.271C19.7576 50.3988 19.4107 51.0755 19.2928 52.4955C19.1733 53.932 18.9027 54.4521 18.3803 54.2513C17.2664 53.8241 16.8469 54.9441 17.7733 55.8704C18.9978 57.095 17.7412 60.129 16.0092 60.129C15.1874 60.129 14.5118 60.6199 14.1051 61.5124C13.7587 62.2733 13.1549 62.8958 12.7637 62.8958C12.3725 62.8958 11.7212 63.5803 11.3161 64.4176C10.7849 65.516 10.2371 65.8912 9.34949 65.7661C8.45582 65.6405 8.11883 65.8757 8.11883 66.6238C8.11883 67.9242 9.15416 68.9828 10.4258 68.9828C11.0383 68.9828 11.2929 69.2733 11.1064 69.7591C10.9426 70.1863 11.3239 71.5459 11.9536 72.7805C13.7504 76.3026 13.467 77.3036 11.2741 75.1782C8.07179 72.0744 5.94745 73.1977 8.38056 76.7082C10.0783 79.1579 11.439 83.2694 11.439 85.9482C11.439 87.1766 11.7029 87.7969 12.2253 87.7969C13.2009 87.7969 13.8361 85.1242 13.3348 83.1266C13.047 81.9806 13.2224 81.451 14.0923 80.8418C15.8481 79.6117 16.0678 77.2942 14.7879 73.4954C14.1637 71.6416 13.6524 69.7768 13.6524 69.3519C13.6524 68.9274 14.7442 68.1627 16.0783 67.653C19.5418 66.3305 23.9006 61.9944 24.3903 59.3848C24.6039 58.246 24.6172 56.8056 24.4202 56.1836C24.0993 55.1726 24.1861 55.1206 25.248 55.6889C27.5384 56.9146 29.2007 56.2007 30.2338 53.5479C30.9205 51.7844 31.2763 51.3666 31.5297 52.0262C32.009 53.2757 33.7454 53.1672 34.9727 51.811C36.5703 50.0457 39.6032 48.3685 40.5445 48.7293C41.0154 48.9102 41.9168 48.7813 42.5482 48.4438C43.4662 47.9524 43.796 48.0083 44.1956 48.7221C44.879 49.9428 47.1914 49.8443 49.0574 48.5157C50.5985 47.4178 50.6023 47.4178 50.8895 48.5157C51.216 49.7635 52.73 49.9395 54.8466 48.9755C56.0839 48.4117 56.412 48.5102 57.6128 49.8056C59.2491 51.5708 59.7654 51.6134 61.8195 50.1509C63.723 48.7952 65.7776 49.1327 67.0028 51.0019C67.4643 51.7069 68.7248 52.5746 69.8028 52.9304C70.8813 53.2862 72.0195 54.0554 72.3322 54.6397C73.0028 55.8931 74.9756 56.0524 75.4216 54.8893C75.6816 54.212 76.168 54.2966 78.3444 55.3995C80.938 56.7143 82.6744 58.2482 82.1554 58.7667C82.0065 58.9161 81.2512 58.5398 80.4776 57.9311C79.2718 56.9826 78.9769 56.9378 78.413 57.6173C77.8779 58.2626 78.3189 58.9565 80.7808 61.3448C83.0092 63.5062 83.9776 64.9355 84.4568 66.7693C84.8142 68.1389 85.3626 70.0873 85.6753 71.0994C85.9879 72.1114 86.1456 73.0378 86.025 73.1578C85.7456 73.4373 81.5245 69.3756 78.7721 66.1794C76.8896 63.9937 76.5847 63.826 75.9804 64.645C75.3496 65.4994 74.9905 65.49 70.9001 64.5111C65.2951 63.1703 65.4871 63.1559 63.3108 65.0666C62.2976 65.9564 60.9817 66.6409 60.3868 66.5884C58.7848 66.4467 56.6638 70.8199 57.0052 73.5607C57.2238 75.3099 57.0456 75.8029 55.9074 76.6042C52.0577 79.3129 52.0837 79.278 52.8606 80.73C53.5036 81.9313 53.4256 82.3159 52.1556 84.1868C50.5481 86.5558 50.3611 87.9109 51.5104 88.8649C52.1003 89.3541 52.1689 89.9506 51.7871 91.2809C51.0472 93.8606 51.1601 95.544 52.0737 95.544C52.9646 95.544 53.2712 94.741 53.7924 91.044C54.0232 89.4083 53.9341 88.3459 53.5473 88.1063C52.5867 87.5125 52.8302 86.2802 54.3679 83.9566C55.4813 82.2739 55.6711 81.5689 55.2317 80.7477C54.7658 79.8773 54.9412 79.5342 56.2494 78.7617C57.1187 78.2476 58.4971 77.0347 59.3127 76.0657C60.6358 74.4931 60.7006 74.2341 59.9115 73.657C58.7943 72.8402 58.7157 70.9582 59.8163 71.3805C60.3182 71.573 61.4006 70.6296 62.7901 68.7891C65.2149 65.5774 65.9066 65.4064 71.4783 66.6421C73.0001 66.9796 75.1393 67.3991 76.2317 67.5745C78.9902 68.0166 80.6187 69.9273 80.8699 73.0156C80.9828 74.4007 81.332 76.0137 81.6463 76.6003C82.3147 77.8492 83.7125 84.1691 84.1524 87.9292C84.4269 90.2721 84.2836 90.7513 82.8105 92.4291C81.9041 93.4617 81.1621 94.7372 81.1621 95.264C81.1621 95.7902 82.0021 98.4967 83.0291 101.278C85.9193 109.106 85.9331 109.258 83.7966 109.808C82.1277 110.238 81.98 110.462 81.8261 112.8C81.7038 114.669 81.2351 115.803 80.0277 117.156C78.1347 119.276 77.8381 122.467 79.2253 125.787C79.6819 126.88 80.0554 127.964 80.0554 128.197C80.0554 129.125 72.5817 129.997 67.1195 129.706C62.7015 129.47 60.4654 129.027 56.5377 127.608C53.7985 126.619 50.8967 125.349 50.0888 124.787C48.3275 123.562 47.4072 123.483 47.4072 124.558C47.4072 125.934 52.8977 129.163 59.3388 131.573C61.996 132.567 63.3639 132.703 68.8958 132.524C74.5002 132.344 75.7796 132.118 78.5967 130.809C81.7547 129.343 81.8322 129.254 81.4974 127.502C80.4206 121.869 80.4532 121.158 81.9263 118.043C82.7231 116.359 83.3755 114.237 83.3755 113.329C83.3755 111.954 83.6461 111.62 84.9974 111.323C88.1687 110.626 88.1897 110.005 85.3007 102.153L82.649 94.9452L84.3959 93.1429C85.9248 91.5653 86.1423 90.9627 86.1423 88.3016C86.1423 86.6305 85.7688 83.8288 85.3123 82.0758C84.2725 78.0838 84.2769 77.8503 85.3621 79.3997C86.0565 80.3913 86.4052 80.5208 87.0161 80.0134C87.4416 79.6604 87.6701 79.1767 87.5229 78.9382C87.3757 78.7003 87.6563 78.3517 88.1466 78.1641C90.0629 77.4287 87.829 65.7119 85.0207 61.7681C84.2985 60.7538 83.9853 59.7162 84.1989 59.0433C84.7384 57.3429 83.5792 55.8267 80.3404 53.9989C77.4048 52.3422 76.6976 51.2786 75.3081 46.4334C75.1991 46.0527 74.6247 45.7417 74.0321 45.7417C73.4389 45.7417 72.8285 46.0527 72.6747 46.4334C72.5214 46.8141 72.3759 46.4489 72.3521 45.6227C72.279 43.1044 68.4714 42.0923 65.2254 43.7281C64.4036 44.142 62.6484 44.6472 61.3242 44.8503C58.9907 45.2077 58.8507 45.143 56.712 42.7137C54.7254 40.4566 52.9408 39.4805 52.9408 40.6508ZM183.02 40.4504C180.737 40.7033 175.134 41.1332 170.569 41.4066C161.172 41.9688 160.267 42.2643 149.764 48.1958C143.389 51.7965 140.351 54.3895 141.343 55.3817C141.766 55.8039 141.711 56.7208 141.156 58.5602C140.727 59.9817 140.119 63.6339 139.806 66.6757C139.453 70.0932 138.963 72.3592 138.522 72.606C138 72.8977 137.879 74.1079 138.071 77.0993C138.237 79.6929 138.116 81.3275 137.74 81.5599C136.478 82.3396 136.2 75.8094 137.372 72.9038C137.61 72.3144 137.512 71.9354 137.122 71.9354C135.388 71.9354 134.217 78.9802 135.423 82.152C135.882 83.3589 135.706 83.9493 134.316 85.8678C131.42 89.8658 132.684 93.3404 136.857 92.8529L138.886 92.616L138.594 95.8338C138.326 98.7926 138.416 99.1412 139.708 100.158C140.481 100.766 140.858 101.263 140.545 101.263C139.464 101.263 139.32 102.987 140.279 104.45C140.964 105.495 141.252 107.103 141.277 110.033C141.31 113.808 141.438 114.256 142.825 115.449C145.021 117.338 146.627 117.564 153.127 116.897L158.948 116.3L160.442 117.89C163.433 121.072 164.792 130.828 162.681 133.961C157.651 141.426 156.23 143.853 153.738 149.235C150.398 156.444 147.999 160.705 143.593 167.256C141.843 169.858 140.411 172.508 140.411 173.146C140.411 175.408 142.07 174.276 143.779 170.848C144.727 168.946 146.57 166.015 147.874 164.335C149.298 162.5 151.69 157.945 153.86 152.934C159.094 140.848 162.964 135.173 167.605 132.777C170.114 131.482 178.838 130.228 188.231 129.814L195.378 129.498L197.612 131.843C198.841 133.133 200.338 134.188 200.94 134.188C202.576 134.188 205.354 139.239 206.814 144.87C207.5 147.517 209.046 152.795 210.249 156.599C212.261 162.964 212.488 164.329 213.083 173.707C213.517 180.536 213.946 183.97 214.384 184.116C215.389 184.451 215.852 179.904 215.518 172.987C215.291 168.285 214.74 165.077 213.178 159.366C212.054 155.257 210.528 149.53 209.786 146.639C208.12 140.141 206.354 136.423 203.3 132.975C200.155 129.427 198.942 127.557 197.542 124.1C196.104 120.548 196.296 120.38 201.834 120.306C206.812 120.24 210.15 118.795 211.644 116.06C212.468 114.553 212.618 112.9 212.587 105.69C212.539 94.7658 211.257 86.3033 207.094 69.4453C203.136 53.4139 199.248 46.389 192.392 42.8796C191.003 42.1686 189.541 41.1941 189.142 40.7138C188.743 40.2335 188.137 39.8744 187.794 39.9159C187.45 39.9568 185.302 40.1975 183.02 40.4504ZM53.3475 44.962C52.9823 46.8634 53.0515 46.9835 54.2451 46.5258C55.3496 46.102 55.3789 45.7074 54.4056 44.376C53.7056 43.4187 53.637 43.4569 53.3475 44.962ZM65.5613 45.382C64.7108 46.0289 64.7794 46.185 66.3111 47.0897C67.9518 48.0592 68.0265 48.0559 69.1133 46.9696C69.7269 46.3554 70.0601 45.579 69.8526 45.2443C69.3429 44.4197 66.7167 44.5039 65.5613 45.382ZM177.209 42.1055C174.774 42.3722 170.666 42.6683 168.079 42.7629C164.361 42.899 162.68 43.2548 160.055 44.4617C156.694 46.0067 145.157 52.2973 143.851 53.2972C142.915 54.0138 144.412 55.6152 149.541 59.3808C156.938 64.8114 162.297 69.3822 167.45 74.6562L172.632 79.9591L172.274 76.0856C171.396 66.5982 171.252 62.5283 171.794 62.5283C172.102 62.5283 172.502 64.7013 172.686 67.3702C172.869 70.0335 173.27 74.8267 173.576 78.0223C173.883 81.218 174.203 91.7052 174.288 101.328L174.442 118.822L176.065 119.541C177.117 120.007 180.036 120.25 184.365 120.233C188.038 120.219 191.462 120.426 191.973 120.695C192.6 121.023 193.173 120.912 193.732 120.353C194.188 119.897 194.902 119.524 195.32 119.524C195.737 119.524 196.38 119.223 196.748 118.855C197.163 118.44 198.734 118.237 200.871 118.321C205.267 118.495 208.911 117.445 210.072 115.669C211.539 113.426 211.181 99.2762 209.386 88.5361C207.931 79.8357 203.875 62.9466 201.871 57.2437C199.769 51.263 195.618 46.1893 190.829 43.7462C189.618 43.1287 188.509 42.4303 188.363 42.1946C187.985 41.5831 182.388 41.5383 177.209 42.1055ZM38.5535 46.0184C37.9891 46.6985 38.0273 46.8484 38.7627 46.8484C39.2563 46.8484 39.6602 46.4749 39.6602 46.0184C39.6602 45.5619 39.5662 45.1884 39.4511 45.1884C39.3365 45.1884 38.9326 45.5619 38.5535 46.0184ZM72.6736 49.1028C71.8579 50.2682 71.8557 50.4691 72.6481 51.345C73.1273 51.8746 73.8694 52.1728 74.2971 52.0091C75.2417 51.6466 75.2401 51.7949 74.3226 49.613L73.57 47.8235L72.6736 49.1028ZM19.7227 59.8961C18.9707 61.8743 19.3675 62.1626 20.488 60.4516C21.0397 59.61 21.1753 58.9493 20.8389 58.7412C20.5373 58.5547 20.0354 59.0743 19.7227 59.8961ZM143.198 57.7716C142.881 58.6039 142.369 61.0735 142.058 63.2587C141.748 65.4439 141.381 67.9163 141.243 68.7536C141.011 70.158 141.133 70.2753 142.826 70.2753C145.148 70.2753 145.815 71.6034 146.682 77.9487L147.314 82.5792L150.365 82.2472C152.042 82.0646 155.282 81.6811 157.565 81.395C164.147 80.5689 169.645 80.4737 170.344 81.1731C171.158 81.9866 170.43 83.2444 169.551 82.5433C169.157 82.2278 166.029 82.2278 161.439 82.5438C157.33 82.8266 152.371 83.1547 150.419 83.2726C147.009 83.4784 146.84 83.5581 146.106 85.3034C144.393 89.3772 142.353 89.857 140.778 86.5562C140.111 85.1568 139.519 84.6626 138.511 84.6626C136.787 84.6626 134.161 87.9274 134.42 89.7507C134.574 90.8337 134.877 90.9991 136.433 90.848C139.258 90.573 139.948 91.5082 139.801 95.4116L139.674 98.7732L141.703 98.7102C144.116 98.6349 144.248 99.2801 142.245 101.371C140.775 102.905 140.768 102.943 141.691 104.878C142.204 105.954 142.624 108.149 142.624 109.755C142.624 114.651 145.24 116.361 150.931 115.185C155.084 114.327 157.298 114.377 159.224 115.373C162.942 117.296 165.627 123.651 165.203 129.521L164.97 132.727L167.238 131.399C171.476 128.915 181.881 127.11 190.508 127.362C197.543 127.568 197.364 127.7 195.371 123.784C194.772 122.607 194.317 122.319 193.478 122.585C192.87 122.778 191.999 122.625 191.541 122.244C190.994 121.791 188.166 121.492 183.297 121.374C176.202 121.202 175.826 121.134 174.472 119.78L173.059 118.367V107.776C173.059 97.5542 173.015 97.1381 171.814 95.8576C170.721 94.6928 170.569 93.9469 170.569 89.7352C170.569 86.7986 170.879 84.2044 171.368 83.0435C172.106 81.2921 172.087 81.1023 171.115 80.5534C170.536 80.2263 167.892 77.7678 165.241 75.0895C162.589 72.4107 159.542 69.5471 158.47 68.7259C154.984 66.0554 147.932 60.1809 145.827 58.196L143.773 56.2582L143.198 57.7716ZM141.398 72.3133C139.33 72.8562 139.627 78.5956 142.048 84.8967C142.595 86.3194 142.768 86.4162 143.483 85.7018C143.93 85.2547 144.588 83.4917 144.947 81.784C145.508 79.1063 145.458 78.2165 144.577 75.3075C144.016 73.4527 143.284 71.9642 142.952 71.9996C142.619 72.035 141.92 72.1761 141.398 72.3133ZM35.053 86.2841C33.0161 88.0343 31.4811 94.1882 32.3642 97.0651C32.8733 98.7241 32.8346 99.2586 32.1495 100.016C31.6891 100.524 31.1579 101.905 30.9686 103.084C30.6134 105.295 27.7415 109.35 26.518 109.368C26.1063 109.374 25.8224 108.649 25.8163 107.579C25.8014 104.929 22.4115 97.157 19.4759 93.0433C18.0665 91.0684 16.6533 88.7067 16.3356 87.7947C15.7092 85.9991 14.9102 85.6521 14.4088 86.9586C14.1017 87.7593 15.7906 91.5863 19.1744 97.7574C23.1807 105.065 23.9106 111.805 22.2295 125.979C21.7785 129.783 21.4066 132.958 21.4044 133.034C21.4016 133.11 20.9069 133.172 20.3054 133.172C18.5253 133.172 17.4424 135.451 17.6338 138.794C17.7688 141.16 17.9935 141.75 18.761 141.755C19.2878 141.759 21.2799 143.277 23.1879 145.13C25.0953 146.983 28.1504 149.663 29.9765 151.086C33.3248 153.695 37.3489 156.958 41.8067 160.679C43.1392 161.791 45.0743 164.023 46.1074 165.637C48.0951 168.744 49.8199 169.665 51.7345 168.64C53.4178 167.739 58.0649 162.074 57.6588 161.417C56.8929 160.177 55.2268 160.96 52.9945 163.607C51.7113 165.129 50.4507 166.374 50.1934 166.374C49.9361 166.374 49.1011 165.316 48.3369 164.022C46.6137 161.104 44.2393 158.798 39.8091 155.738C32.9674 151.014 23.599 143.569 21.691 141.34C19.6071 138.906 19.3271 137.796 20.431 136.354C21.0519 135.543 21.5488 135.727 25.2729 138.144C27.5555 139.625 30.879 142.016 32.658 143.456C42.5842 151.495 52.6182 157.52 56.0795 157.52C57.4817 157.52 58.5978 158 59.9425 159.18C60.9822 160.093 62.0165 160.84 62.24 160.84C62.4641 160.84 63.2189 162.77 63.9172 165.129C66.8218 174.935 67.4698 176.765 69.1564 179.928C70.8884 183.177 72.5662 184.388 73.1666 182.823C73.3326 182.391 72.5928 180.567 71.5226 178.771C69.2909 175.024 67.3281 169.696 67.3281 167.385C67.3281 165.184 65.6338 159.09 64.7196 158.005C64.0716 157.236 64.1248 156.832 65.0882 155.2C66.4516 152.888 66.2021 152.475 61.6551 149.519C59.9048 148.381 58.3211 147.205 58.1358 146.906C57.9504 146.607 58.6133 145.228 59.6082 143.842C61.0818 141.79 61.483 140.611 61.7691 137.487C62.1061 133.814 61.7215 132.471 60.643 133.549C60.3669 133.825 59.9784 135.608 59.7798 137.512C59.5014 140.176 59.0416 141.444 57.7844 143.021C55.8543 145.441 54.0475 148.829 54.0475 150.028C54.0475 151.15 55.5162 151.123 56.1503 149.99C56.5814 149.22 56.9892 149.361 59.1894 151.04C60.5871 152.107 62.0408 153.083 62.4199 153.209C62.9428 153.384 62.9024 153.734 62.2527 154.661C61.5367 155.685 61.2921 155.758 60.7554 155.111C60.4023 154.686 58.9354 154.018 57.4955 153.628C56.0557 153.238 53.8815 152.426 52.6642 151.824C49.8077 150.41 37.7644 142.683 34.3248 140.058C32.8639 138.943 30.4158 137.463 28.8858 136.77C24.0063 134.56 24.1745 134.985 25.0549 127.085C26.3243 115.69 26.8821 113.257 28.95 110.094C29.9859 108.51 31.0765 107.063 31.3731 106.88C31.6703 106.696 31.9132 105.598 31.9132 104.44C31.9132 103.13 32.3581 101.768 33.0897 100.838L34.2661 99.3422L35.8133 102.051C38.6548 107.027 42.8459 109.603 44.6205 107.465C45.5114 106.391 44.8856 105.504 43.2371 105.504C41.5787 105.504 37.7523 100.883 36.9156 97.8697C35.6606 93.3521 36.4834 89.2423 38.8202 88.3542C40.6524 87.6575 40.5805 86.9082 38.5812 85.8746C36.547 84.8226 36.7861 84.795 35.053 86.2841ZM42.2887 88.1699C42.9937 88.6618 43.5337 89.6158 43.5337 90.3684C43.5337 91.2776 43.9714 91.8641 44.9171 92.2238C46.0355 92.6493 46.3005 93.1274 46.3005 94.7228C46.3005 95.8123 46.7897 97.3667 47.394 98.1945C47.9949 99.0196 48.8294 101.052 49.2483 102.71C50.1049 106.103 50.6842 106.557 52.3443 105.136C53.2988 104.319 53.4942 103.514 53.4942 100.401C53.4942 98.2698 53.2551 96.6507 52.9408 96.6507C52.6287 96.6507 52.3875 98.2183 52.3875 100.247C52.3875 102.277 52.1462 103.844 51.8341 103.844C51.5298 103.844 51.2808 103.463 51.2808 102.996C51.2808 101.94 48.7359 96.8532 47.9711 96.3806C47.6612 96.1886 47.4072 95.4078 47.4072 94.6448C47.4072 92.8181 46.4638 91.1171 45.4511 91.1171C45.0051 91.1171 44.6405 90.6578 44.6405 90.0961C44.6405 88.9081 42.971 87.2303 41.83 87.2724C41.3286 87.2912 41.4946 87.6165 42.2887 88.1699ZM172.298 85.8385C171.831 88.1764 171.926 91.3383 172.506 92.6863C172.822 93.4223 172.994 92.1711 173.02 88.9511C173.041 86.2884 172.966 84.1093 172.852 84.1093C172.738 84.1093 172.489 84.8873 172.298 85.8385ZM33.6812 91.9471C33.6923 92.8602 33.8162 93.1667 33.9568 92.6283C34.0973 92.0899 34.0879 91.3429 33.9363 90.9682C33.7847 90.5936 33.6701 91.0341 33.6812 91.9471ZM33.617 97.5266C33.6436 98.1713 33.7747 98.3024 33.9512 97.8614C34.1112 97.4619 34.0912 96.9843 33.9075 96.8006C33.7238 96.6169 33.5932 96.9434 33.617 97.5266ZM73.6137 115.191C73.1246 116.467 75.7563 119.067 77.039 118.574C77.9355 118.231 77.9333 118.143 77.0014 117.113C76.0469 116.059 76.0491 116.015 77.0645 115.932C77.6444 115.885 78.7041 115.898 79.4196 115.962C80.2496 116.036 80.6375 115.827 80.4903 115.386C80.3542 114.977 78.9725 114.607 77.1137 114.482C74.56 114.309 73.9015 114.442 73.6137 115.191ZM15.3435 143.018C14.7624 145.176 9.89179 153.064 5.87607 158.35C3.44627 161.549 1.29371 167.561 0.38122 173.699C-0.30273 178.301 -0.140597 179.101 1.47853 179.101C2.89347 179.101 3.04509 178.746 3.72848 173.833C4.57346 167.759 6.25235 162.749 8.63179 159.203C13.5998 151.796 17.1314 145.229 17.19 143.287C17.2725 140.531 16.0606 140.355 15.3435 143.018Z" fill="white"/>
<path fill-rule="evenodd" clip-rule="evenodd" d="M54.4255 37.424C54.4255 38.0698 48.893 44.175 48.3081 44.175C48.0287 44.175 48.0497 43.5508 48.3563 42.7451C49.3949 40.0132 48.006 39.5517 45.3842 41.7579L43.6538 43.2138L43.2886 41.4298C42.7508 38.7986 42.0403 38.3343 40.4101 39.5473C38.7018 40.8189 37.2714 43.1413 37.2714 44.6442C37.2714 45.2646 36.7109 46.1671 36.0264 46.6496C34.8001 47.5134 34.7769 47.4913 34.5046 45.1638C34.3159 43.553 33.9374 42.7462 33.3149 42.6284C32.626 42.4978 32.0986 43.3815 31.1712 46.2202C30.4944 48.2909 29.7452 50.1989 29.5061 50.4606C29.2676 50.7218 28.8958 49.2902 28.6805 47.2788C28.4066 44.7223 28.0586 43.6216 27.5235 43.6216C26.954 43.6216 26.7576 44.4965 26.7576 47.0276C26.7576 50.2918 26.7156 50.3953 25.7455 49.5177C25.1888 49.0141 24.3173 48.6019 23.8088 48.6019C23.3002 48.6019 22.8841 48.2101 22.8841 47.7314C22.8841 47.2013 22.5056 46.9324 21.9157 47.0442C21.2423 47.172 20.8953 47.8487 20.7775 49.2687C20.6579 50.7052 20.3873 51.2253 19.865 51.0245C18.7511 50.5973 18.3316 51.7173 19.2579 52.6436C20.4825 53.8682 19.2259 56.9022 17.4938 56.9022C16.6721 56.9022 15.9965 57.3931 15.5897 58.2856C15.2433 59.0465 14.6396 59.669 14.2484 59.669C13.8572 59.669 13.2059 60.3535 12.8008 61.1908C12.2696 62.2892 11.7218 62.6644 10.8342 62.5393C9.9405 62.4137 9.60351 62.6489 9.60351 63.397C9.60351 64.6974 10.6388 65.756 11.9105 65.756C12.523 65.756 12.7776 66.0465 12.5911 66.5323C12.4273 66.9595 12.8086 68.3191 13.4383 69.5537C15.235 73.0758 14.9517 74.0768 12.7588 71.9514C9.55647 68.8476 7.43213 69.9709 9.86524 73.4814C11.5629 75.9311 12.9237 80.0426 12.9237 82.7214C12.9237 83.9498 13.1876 84.5701 13.71 84.5701C14.6855 84.5701 15.3208 81.8974 14.8195 79.8998C14.5317 78.7538 14.7071 78.2242 15.577 77.615C17.3328 76.3849 17.5525 74.0674 16.2726 70.2686C15.6484 68.4148 15.1371 66.55 15.1371 66.1251C15.1371 65.7006 16.2289 64.9359 17.563 64.4262C21.0265 63.1037 25.3853 58.7676 25.875 56.158C26.0886 55.0192 26.1019 53.5788 25.9049 52.9568C25.5839 51.9458 25.6708 51.8938 26.7327 52.4621C29.0231 53.6878 30.6853 52.9739 31.7185 50.3211C32.4052 48.5576 32.761 48.1398 33.0144 48.7994C33.4936 50.0489 35.2301 49.9404 36.4574 48.5842C38.055 46.8189 41.0879 45.1417 42.0292 45.5025C42.5001 45.6835 43.4015 45.5545 44.0329 45.217C44.9509 44.7256 45.2807 44.7815 45.6802 45.4953C46.3636 46.716 48.6761 46.6175 50.542 45.2889C52.0831 44.191 52.087 44.191 52.3742 45.2889C52.7007 46.5367 54.2147 46.7127 56.3313 45.7487C57.5686 45.1849 57.8967 45.2834 59.0975 46.5788C60.7338 48.344 61.2501 48.3866 63.3041 46.9241C65.2077 45.5684 67.2623 45.9059 68.4874 47.7751C68.949 48.4801 70.2095 49.3478 71.2874 49.7036C72.3659 50.0594 73.5042 50.8286 73.8168 51.4129C74.4875 52.6663 76.4602 52.8256 76.9062 51.6625C77.1663 50.9852 77.6527 51.0698 79.8291 52.1727C82.4227 53.4875 84.1591 55.0214 83.6401 55.5399C83.4912 55.6893 82.7359 55.313 81.9623 54.7043C80.7565 53.7558 80.4616 53.711 79.8977 54.3905C79.3626 55.0358 79.8036 55.7297 82.2655 58.118C84.4939 60.2794 85.4623 61.7087 85.9415 63.5425C86.2989 64.9121 86.8473 66.8605 87.16 67.8726C87.4726 68.8847 87.6303 69.811 87.5097 69.931C87.2302 70.2105 83.0092 66.1488 80.2568 62.9526C78.3743 60.7669 78.0694 60.5992 77.4651 61.4182C76.8343 62.2726 76.4752 62.2632 72.3848 61.2843C66.7798 59.9435 66.9718 59.9291 64.7954 61.8398C63.7822 62.7296 62.4664 63.4142 61.8715 63.3616C60.2695 63.2199 58.1485 67.5931 58.4899 70.3339C58.7085 72.0831 58.5303 72.5761 57.3921 73.3774C53.5424 76.0861 53.5684 76.0512 54.3453 77.5032C54.9883 78.7045 54.9103 79.0891 53.6403 80.96C52.0328 83.329 51.8458 84.6841 52.9951 85.6381C53.585 86.1273 53.6536 86.7238 53.2718 88.0541C52.5319 90.6338 52.6448 92.3172 53.5584 92.3172C54.4493 92.3172 54.7559 91.5142 55.2771 87.8172C55.5079 86.1815 55.4188 85.1191 55.032 84.8795C54.0714 84.2857 54.3148 83.0534 55.8526 80.7298C56.966 79.0471 57.1558 78.3421 56.7164 77.5209C56.2505 76.6505 56.4259 76.3074 57.734 75.5349C58.6034 75.0208 59.9818 73.8079 60.7974 72.8389C62.1205 71.2663 62.1853 71.0073 61.3962 70.4302C60.2789 69.6134 60.2004 67.7315 61.301 68.1537C61.8029 68.3462 62.8853 67.4028 64.2747 65.5623C66.6995 62.3506 67.3912 62.1796 72.963 63.4153C74.4847 63.7528 76.624 64.1723 77.7163 64.3477C80.4748 64.7898 82.1034 66.7005 82.3546 69.7888C82.4675 71.1739 82.8167 72.7869 83.131 73.3735C83.7994 74.6224 85.1972 80.9423 85.6371 84.7024C85.9116 87.0453 85.7683 87.5245 84.2952 89.2023C83.3888 90.2349 82.6468 91.5104 82.6468 92.0372C82.6468 92.5634 83.4868 95.2699 84.5138 98.0511C87.404 105.879 87.4178 106.031 85.2813 106.581C83.6124 107.011 83.4646 107.236 83.3108 109.573C83.1885 111.442 82.7198 112.577 81.5124 113.929C79.6194 116.05 79.3228 119.24 80.71 122.56C81.1665 123.653 81.5401 124.737 81.5401 124.97C81.5401 125.898 74.0664 126.77 68.6042 126.479C64.1862 126.243 61.9501 125.8 58.0223 124.381C55.2832 123.392 52.3814 122.123 51.5735 121.56C49.8122 120.335 48.8919 120.256 48.8919 121.331C48.8919 122.708 54.3823 125.936 60.8234 128.346C63.4807 129.34 64.8486 129.476 70.3805 129.298C75.9849 129.117 77.2643 128.891 80.0814 127.583C83.2394 126.116 83.3169 126.027 82.9821 124.275C81.9053 118.643 81.9379 117.931 83.411 114.817C84.2078 113.132 84.8602 111.011 84.8602 110.103C84.8602 108.728 85.1308 108.393 86.4821 108.096C89.6534 107.399 89.6744 106.779 86.7853 98.9259L84.1336 91.7184L85.8806 89.9161C87.4095 88.3385 87.627 87.7359 87.627 85.0748C87.627 83.4037 87.2535 80.602 86.797 78.849C85.7572 74.857 85.7616 74.6235 86.8468 76.1729C87.5412 77.1645 87.8898 77.294 88.5007 76.7866C88.9263 76.4336 89.1548 75.9499 89.0076 75.7114C88.8604 75.4735 89.141 75.1249 89.6313 74.9373C91.5475 74.2019 89.3136 62.4851 86.5053 58.5413C85.7832 57.527 85.47 56.4894 85.6836 55.8165C86.2231 54.1161 85.0638 52.5999 81.825 50.7721C78.8895 49.1154 78.1823 48.0518 76.7928 43.2066C76.6838 42.8259 76.1094 42.5149 75.5168 42.5149C74.9236 42.5149 74.3132 42.8259 74.1594 43.2066C74.0061 43.5873 73.8605 43.2221 73.8368 42.396C73.7637 39.8776 69.9561 38.8655 66.7101 40.5013C65.8883 40.9152 64.1331 41.4204 62.8089 41.6235C60.4754 41.9809 60.3354 41.9162 58.1966 39.4869C56.2101 37.2298 54.4255 36.2537 54.4255 37.424ZM184.504 38.2236C182.222 38.4765 176.619 38.9065 172.054 39.1798C162.657 39.742 161.752 40.0375 151.249 45.969C144.874 49.5697 141.836 52.1627 142.828 53.1549C143.25 53.5771 143.196 54.494 142.64 56.3334C142.212 57.7549 141.603 61.4071 141.29 64.4489C140.938 67.8664 140.448 70.1324 140.006 70.3792C139.485 70.6709 139.363 71.8811 139.555 74.8725C139.722 77.4661 139.601 79.1007 139.225 79.3331C137.963 80.1128 137.685 73.5826 138.857 70.677C139.095 70.0876 138.997 69.7086 138.606 69.7086C136.873 69.7086 135.702 76.7534 136.908 79.9252C137.366 81.1321 137.191 81.7225 135.801 83.641C132.905 87.639 134.169 91.1136 138.341 90.6261L140.371 90.3892L140.079 93.607C139.811 96.5658 139.9 96.9144 141.193 97.9309C141.966 98.5391 142.342 99.0366 142.03 99.0366C140.949 99.0366 140.805 100.76 141.763 102.223C142.448 103.268 142.736 104.877 142.762 107.806C142.795 111.581 142.923 112.029 144.309 113.222C146.506 115.111 148.112 115.337 154.611 114.671L160.433 114.074L161.927 115.663C164.918 118.845 166.277 128.601 164.166 131.734C159.136 139.199 157.715 141.626 155.222 147.008C151.883 154.217 149.484 158.478 145.077 165.029C143.327 167.631 141.896 170.281 141.896 170.919C141.896 173.182 143.555 172.049 145.263 168.621C146.211 166.719 148.055 163.788 149.359 162.108C150.783 160.273 153.175 155.718 155.344 150.707C160.579 138.622 164.448 132.946 169.09 130.55C171.598 129.255 180.322 128.002 189.715 127.587L196.862 127.272L199.096 129.616C200.325 130.906 201.823 131.961 202.425 131.961C204.061 131.961 206.838 137.012 208.299 142.643C208.985 145.29 210.53 150.568 211.733 154.372C213.746 160.738 213.972 162.102 214.568 171.481C215.002 178.31 215.431 181.744 215.869 181.889C216.873 182.224 217.337 177.678 217.003 170.761C216.776 166.058 216.224 162.85 214.662 157.139C213.538 153.03 212.012 147.303 211.271 144.412C209.605 137.914 207.839 134.196 204.784 130.748C201.64 127.2 200.427 125.33 199.027 121.874C197.589 118.322 197.78 118.153 203.318 118.079C208.296 118.013 211.634 116.569 213.129 113.833C213.953 112.326 214.103 110.674 214.071 103.463C214.024 92.539 212.742 84.0765 208.579 67.2185C204.621 51.1871 200.733 44.1622 193.876 40.6529C192.488 39.9418 191.026 38.9673 190.627 38.487C190.228 38.0067 189.622 37.6476 189.279 37.6891C188.935 37.73 186.787 37.9707 184.504 38.2236ZM54.8322 41.7352C54.467 43.6366 54.5362 43.7567 55.7298 43.299C56.8343 42.8752 56.8636 42.4806 55.8903 41.1492C55.1903 40.1919 55.1216 40.2301 54.8322 41.7352ZM67.0459 42.1552C66.1954 42.8021 66.2641 42.9582 67.7958 43.8629C69.4365 44.8324 69.5112 44.8291 70.598 43.7428C71.2116 43.1286 71.5447 42.3522 71.3372 42.0175C70.8276 41.193 68.2014 41.2771 67.0459 42.1552ZM178.694 39.8787C176.259 40.1454 172.151 40.4415 169.564 40.5361C165.846 40.6722 164.164 41.028 161.54 42.2349C158.178 43.7799 146.641 50.0705 145.336 51.0704C144.4 51.787 145.897 53.3884 151.026 57.154C158.423 62.5846 163.782 67.1554 168.935 72.4294L174.117 77.7323L173.759 73.8588C172.88 64.3714 172.737 60.3015 173.278 60.3015C173.586 60.3015 173.987 62.4745 174.17 65.1434C174.353 67.8067 174.755 72.5999 175.061 75.7955C175.368 78.9912 175.688 89.4784 175.773 99.1007L175.927 116.595L177.55 117.314C178.602 117.78 181.521 118.023 185.85 118.006C189.523 117.992 192.946 118.199 193.458 118.468C194.085 118.796 194.658 118.685 195.217 118.126C195.673 117.67 196.387 117.297 196.805 117.297C197.222 117.297 197.865 116.996 198.233 116.628C198.647 116.213 200.219 116.01 202.356 116.094C206.751 116.268 210.395 115.218 211.556 113.443C213.024 111.199 212.666 97.0495 210.871 86.3093C209.416 77.6089 205.36 60.7198 203.355 55.0169C201.253 49.0362 197.103 43.9625 192.314 41.5194C191.103 40.9019 189.994 40.2035 189.848 39.9678C189.47 39.3563 183.873 39.3115 178.694 39.8787ZM40.0382 42.7916C39.4738 43.4717 39.512 43.6216 40.2474 43.6216C40.741 43.6216 41.1449 43.2481 41.1449 42.7916C41.1449 42.3351 41.0508 41.9616 40.9357 41.9616C40.8212 41.9616 40.4173 42.3351 40.0382 42.7916ZM74.1583 45.876C73.3426 47.0414 73.3404 47.2423 74.1328 48.1182C74.612 48.6478 75.3541 48.9461 75.7818 48.7823C76.7264 48.4198 76.7247 48.5681 75.8073 46.3862L75.0547 44.5967L74.1583 45.876ZM21.2074 56.6693C20.4554 58.6475 20.8522 58.9358 21.9727 57.2248C22.5244 56.3832 22.66 55.7225 22.3235 55.5144C22.022 55.3279 21.5201 55.8475 21.2074 56.6693ZM144.682 55.5448C144.366 56.3771 143.853 58.8467 143.543 61.0319C143.233 63.2171 142.866 65.6895 142.728 66.5268C142.496 67.9312 142.618 68.0485 144.311 68.0485C146.632 68.0485 147.3 69.3766 148.166 75.7219L148.799 80.3524L151.849 80.0204C153.527 79.8378 156.767 79.4543 159.05 79.1682C165.632 78.3421 171.13 78.2469 171.829 78.9463C172.642 79.7598 171.914 81.0176 171.036 80.3165C170.641 80.001 167.514 80.001 162.923 80.317C158.815 80.5998 153.856 80.9279 151.904 81.0458C148.493 81.2516 148.325 81.3313 147.59 83.0766C145.878 87.1504 143.837 87.6302 142.263 84.3294C141.596 82.93 141.004 82.4358 139.996 82.4358C138.272 82.4358 135.646 85.7006 135.904 87.5239C136.058 88.6069 136.362 88.7723 137.918 88.6213C140.743 88.3462 141.433 89.2814 141.286 93.1848L141.159 96.5464L143.187 96.4834C145.601 96.4081 145.733 97.0533 143.729 99.1439C142.259 100.678 142.253 100.716 143.176 102.652C143.689 103.727 144.109 105.922 144.109 107.528C144.109 112.424 146.724 114.134 152.416 112.958C156.569 112.1 158.782 112.151 160.709 113.147C164.427 115.069 167.112 121.424 166.687 127.294L166.455 130.5L168.722 129.172C172.961 126.688 183.366 124.883 191.993 125.136C199.028 125.342 198.848 125.473 196.856 121.558C196.257 120.381 195.802 120.092 194.963 120.359C194.355 120.551 193.484 120.398 193.025 120.018C192.479 119.564 189.651 119.265 184.782 119.147C177.687 118.975 177.311 118.907 175.957 117.554L174.544 116.14V105.549C174.544 95.3274 174.5 94.9113 173.299 93.6308C172.205 92.466 172.054 91.7201 172.054 87.5084C172.054 84.5718 172.364 81.9776 172.853 80.8167C173.591 79.0653 173.572 78.8755 172.599 78.3266C172.02 77.9995 169.377 75.541 166.725 72.8627C164.074 70.1839 161.027 67.3203 159.954 66.4991C156.469 63.8286 149.416 57.9541 147.312 55.9692L145.258 54.0314L144.682 55.5448ZM142.882 70.0865C140.815 70.6294 141.112 76.3688 143.533 82.6699C144.08 84.0926 144.252 84.1894 144.967 83.475C145.414 83.0279 146.073 81.2649 146.432 79.5572C146.993 76.8795 146.942 75.9897 146.061 73.0807C145.5 71.2259 144.769 69.7374 144.437 69.7728C144.104 69.8082 143.405 69.9493 142.882 70.0865ZM36.5377 83.0573C34.5007 84.8075 32.9657 90.9614 33.8489 93.8383C34.358 95.4973 34.3192 96.0318 33.6342 96.7888C33.1738 97.2974 32.6426 98.678 32.4533 99.8572C32.0981 102.068 29.2261 106.123 28.0027 106.141C27.591 106.147 27.3071 105.422 27.301 104.353C27.2861 101.702 23.8962 93.9302 20.9606 89.8165C19.5512 87.8416 18.1379 85.4799 17.8203 84.5679C17.1939 82.7723 16.3949 82.4253 15.8935 83.7318C15.5864 84.5325 17.2753 88.3595 20.659 94.5306C24.6654 101.838 25.3952 108.579 23.7141 122.752C23.2631 126.556 22.8913 129.731 22.8891 129.807C22.8863 129.883 22.3916 129.946 21.7901 129.946C20.01 129.946 18.927 132.224 19.1185 135.567C19.2535 137.933 19.4782 138.524 20.2457 138.529C20.7725 138.532 22.7646 140.05 24.6726 141.904C26.58 143.756 29.6351 146.437 31.4611 147.859C34.8095 150.468 38.8335 153.732 43.2914 157.452C44.6239 158.565 46.559 160.796 47.5921 162.41C49.5798 165.518 51.3046 166.438 53.2192 165.414C54.9025 164.513 59.5496 158.847 59.1434 158.19C58.3776 156.95 56.7114 157.733 54.4792 160.38C53.1959 161.902 51.9354 163.147 51.6781 163.147C51.4208 163.147 50.5858 162.089 49.8216 160.795C48.0984 157.877 45.724 155.571 41.2938 152.511C34.4521 147.787 25.0837 140.343 23.1757 138.114C21.0918 135.679 20.8118 134.569 21.9157 133.127C22.5366 132.317 23.0335 132.5 26.7576 134.917C29.0402 136.398 32.3637 138.789 34.1427 140.23C44.0689 148.268 54.1029 154.293 57.5642 154.293C58.9664 154.293 60.0825 154.773 61.4272 155.953C62.4669 156.866 63.5011 157.613 63.7247 157.613C63.9488 157.613 64.7036 159.544 65.4019 161.902C68.3065 171.708 68.9545 173.538 70.6411 176.701C72.3731 179.95 74.0509 181.161 74.6513 179.597C74.8173 179.164 74.0775 177.34 73.0073 175.544C70.7756 171.797 68.8128 166.469 68.8128 164.159C68.8128 161.957 67.1184 155.863 66.2043 154.778C65.5563 154.009 65.6094 153.605 66.5728 151.973C67.9363 149.661 67.6867 149.248 63.1398 146.292C61.3895 145.155 59.8058 143.979 59.6204 143.679C59.4351 143.38 60.098 142.001 61.0929 140.615C62.5665 138.563 62.9677 137.384 63.2538 134.26C63.5908 130.587 63.2062 129.244 62.1277 130.322C61.8516 130.598 61.4631 132.381 61.2645 134.285C60.9861 136.949 60.5263 138.218 59.2691 139.794C57.3389 142.215 55.5322 145.602 55.5322 146.801C55.5322 147.923 57.0008 147.896 57.635 146.763C58.0661 145.993 58.4739 146.134 60.674 147.813C62.0718 148.88 63.5255 149.856 63.9045 149.983C64.4275 150.157 64.3871 150.507 63.7374 151.435C63.0214 152.458 62.7768 152.531 62.24 151.884C61.887 151.459 60.42 150.792 58.9802 150.401C57.5404 150.011 55.3662 149.2 54.1488 148.597C51.2924 147.183 39.2491 139.457 35.8094 136.831C34.3486 135.716 31.9005 134.236 30.3705 133.543C25.491 131.333 25.6592 131.758 26.5396 123.859C27.809 112.463 28.3668 110.03 30.4347 106.867C31.4706 105.283 32.5612 103.836 32.8578 103.653C33.155 103.469 33.3979 102.371 33.3979 101.213C33.3979 99.9031 33.8428 98.5413 34.5743 97.6111L35.7508 96.1154L37.298 98.8246C40.1395 103.8 44.3306 106.376 46.1052 104.239C46.9961 103.165 46.3703 102.278 44.7218 102.278C43.0634 102.278 39.2369 97.6565 38.4003 94.6429C37.1452 90.1253 37.9681 86.0155 40.3049 85.1274C42.1371 84.4307 42.0652 83.6814 40.0659 82.6478C38.0317 81.5958 38.2708 81.5682 36.5377 83.0573ZM43.7734 84.9431C44.4783 85.435 45.0184 86.389 45.0184 87.1416C45.0184 88.0508 45.4561 88.6373 46.4018 88.997C47.5202 89.4225 47.7852 89.9006 47.7852 91.496C47.7852 92.5855 48.2744 94.1399 48.8786 94.9677C49.4796 95.7928 50.3141 97.8247 50.733 99.4831C51.5896 102.876 52.1689 103.331 53.829 101.91C54.7835 101.092 54.9789 100.287 54.9789 97.1745C54.9789 95.043 54.7398 93.4239 54.4255 93.4239C54.1134 93.4239 53.8722 94.9915 53.8722 97.0207C53.8722 99.0499 53.6309 100.618 53.3188 100.618C53.0144 100.618 52.7654 100.236 52.7654 99.7692C52.7654 98.7129 50.2205 93.6264 49.4558 93.1538C49.1459 92.9618 48.8919 92.181 48.8919 91.418C48.8919 89.5913 47.9485 87.8903 46.9358 87.8903C46.4898 87.8903 46.1251 87.431 46.1251 86.8693C46.1251 85.6813 44.4557 84.0035 43.3146 84.0456C42.8133 84.0644 42.9793 84.3897 43.7734 84.9431ZM173.783 83.6117C173.315 85.9496 173.411 89.1115 173.99 90.4595C174.307 91.1955 174.479 89.9443 174.505 86.7243C174.526 84.0616 174.45 81.8825 174.336 81.8825C174.222 81.8825 173.973 82.6605 173.783 83.6117ZM35.1659 88.7203C35.1769 89.6334 35.3009 89.9399 35.4415 89.4015C35.582 88.8631 35.5726 88.1161 35.421 87.7414C35.2694 87.3668 35.1548 87.8073 35.1659 88.7203ZM35.1017 94.2998C35.1282 94.9445 35.2594 95.0756 35.4359 94.6346C35.5958 94.2351 35.5759 93.7575 35.3922 93.5738C35.2085 93.3901 35.0779 93.7166 35.1017 94.2998ZM75.0984 111.965C74.6092 113.24 77.241 115.84 78.5237 115.347C79.4201 115.004 79.4179 114.916 78.4861 113.886C77.5315 112.832 77.5337 112.788 78.5492 112.705C79.1291 112.658 80.1888 112.671 80.9042 112.735C81.7343 112.809 82.1222 112.6 81.975 112.159C81.8389 111.751 80.4571 111.38 78.5984 111.255C76.0447 111.082 75.3862 111.215 75.0984 111.965ZM16.8281 139.791C16.2471 141.95 11.3765 149.838 7.36075 155.123C4.93095 158.322 2.77839 164.335 1.8659 170.472C1.18195 175.075 1.34408 175.874 2.96321 175.874C4.37815 175.874 4.52977 175.519 5.21316 170.606C6.05814 164.533 7.73703 159.522 10.1165 155.976C15.0845 148.569 18.616 142.002 18.6747 140.06C18.7572 137.304 17.5453 137.128 16.8281 139.791Z" fill="black"/>
</svg>
