<svg width="128" height="81" viewBox="0 0 128 81" fill="none" xmlns="http://www.w3.org/2000/svg">
<path d="M111.359 40.1216L89.0718 80.2873H7.39227C3.31492 80.2873 0 76.9834 0 72.895V7.39227C0 3.31492 3.30387 0 7.39227 0H89.1602L111.359 40.1216ZM41.547 58.1879V22.2983H35.5691V48.7293H35.4586L19.0829 22.2983H12.453V58.1879H18.442V31.7901H18.5967L34.9392 58.1879H41.547ZM54.0221 58.1879V22.2983H47.7459V58.1879H54.0221ZM89.2155 22.2983H82.9392V36.5746H66.5967V22.2983H60.3204V58.1879H66.5967V42.0111H82.9392V58.1989H89.2155V22.2983Z" fill="#5E5F5F"/>
<path d="M94.6519 80.3094L116.895 40.1216L94.7292 0H100.287C103.326 0 107.028 2.1768 108.497 4.83978L128 40.1105L108.42 75.4586C106.95 78.1105 103.249 80.2873 100.21 80.2873L94.6519 80.3094Z" fill="#2E5586"/>
</svg>
