<svg width="75" height="47" viewBox="0 0 75 47" fill="none" xmlns="http://www.w3.org/2000/svg">
<path fill-rule="evenodd" clip-rule="evenodd" d="M49.8353 11.0836H52.6062C53.3724 11.0836 53.9917 11.7029 53.9917 12.4691V13.8545C53.9917 21.505 47.7876 27.7091 40.1371 27.7091H34.5953C26.9448 27.7091 20.7408 21.505 20.7408 13.8545V12.4691C20.7408 11.7029 21.3601 11.0836 22.1262 11.0836H24.8971C25.9321 11.0836 26.9268 11.2305 27.8967 11.4466C27.7609 10.9035 27.6681 10.3327 27.6681 9.69817V6.92727C27.6681 6.16111 28.2874 5.54181 29.0535 5.54181H31.8244C31.9635 5.54181 32.0971 5.55926 32.2307 5.57671C32.3101 5.58708 32.3895 5.59745 32.47 5.60416L36.2579 0.554181L36.2773 0.568036C36.5294 0.231371 36.9132 0 37.3662 0C37.8193 0 38.203 0.231371 38.4552 0.568036L38.4746 0.554181L42.261 5.60416C42.3424 5.59742 42.4225 5.58699 42.5024 5.57659C42.636 5.55918 42.7693 5.54181 42.908 5.54181H45.6789C46.4451 5.54181 47.0644 6.16111 47.0644 6.92727V9.69817C47.0644 10.3535 46.9425 10.9243 46.7735 11.4605C47.7613 11.2346 48.7782 11.0836 49.8353 11.0836ZM39.3807 6.38001L37.3662 3.695L35.3518 6.3814C36.0819 6.73469 36.7691 7.16141 37.3662 7.70035C37.9634 7.16141 38.6505 6.7333 39.3807 6.38001ZM23.5117 13.8545C23.5117 19.9755 28.4744 24.9382 34.5953 24.9382H35.9808C35.9808 18.8172 31.0181 13.8545 24.8971 13.8545H23.5117ZM30.439 9.69817C30.439 10.7733 30.7604 11.8013 31.2924 12.6866C33.9234 14.0679 36.0694 16.2472 37.3662 18.9294C38.663 16.2458 40.8105 14.0679 43.4401 12.6866C43.9721 11.8013 44.2935 10.7733 44.2935 9.69817V8.31272H42.908C41.4173 8.31272 40.0706 8.90846 39.0745 9.86581C39.7312 11.0545 40.1371 12.3998 40.1371 13.8545C40.1371 14.6207 39.5178 15.24 38.7517 15.24C37.9855 15.24 37.3662 14.6207 37.3662 13.8545C37.3662 10.7941 34.8849 8.31272 31.8244 8.31272H30.439V9.69817ZM38.7517 24.9382H40.1371C46.2581 24.9382 51.2208 19.9755 51.2208 13.8545H49.8353C43.7144 13.8545 38.7517 18.8172 38.7517 24.9382ZM72.8513 45.8913C73.5306 45.6435 74.0562 45.2969 74.428 44.8517V40.8514H70.4828V42.3731H72.3624V44.1012C72.032 44.4317 71.4789 44.5969 70.7031 44.5969C69.932 44.5969 69.3468 44.3284 68.9474 43.7914C68.5481 43.2543 68.3484 42.4603 68.3484 41.4091V40.7688C68.353 39.7269 68.5389 38.942 68.9061 38.4141C69.2733 37.8863 69.8081 37.6223 70.5103 37.6223C71.0612 37.6223 71.4926 37.7554 71.8047 38.0217C72.1215 38.2879 72.3257 38.7079 72.4175 39.2816H74.428C74.304 38.1984 73.907 37.3745 73.2368 36.8099C72.5667 36.2407 71.6372 35.9561 70.4484 35.9561C69.5946 35.9561 68.8487 36.1512 68.2107 36.5414C67.5773 36.9269 67.0908 37.4869 66.7511 38.2213C66.416 38.9512 66.2485 39.8164 66.2485 40.817V41.4986C66.2577 42.4717 66.439 43.3186 66.7924 44.0392C67.1504 44.7599 67.6553 45.3107 68.3071 45.6917C68.9635 46.0681 69.7254 46.2562 70.593 46.2562C71.4192 46.2562 72.172 46.1346 72.8513 45.8913ZM6.03135 41.774H2.06553V44.4592H6.71986V46.1185H0V36.0938H6.70609V37.7669H2.06553V40.156H6.03135V41.774ZM13.5912 44.053H9.96963L9.28112 46.1185H7.08477L10.8165 36.0938H12.7306L16.4829 46.1185H14.2866L13.5912 44.053ZM10.5273 42.3799H13.0335L11.7735 38.6276L10.5273 42.3799ZM19.4848 42.4488H21.1304L23.01 46.1185H25.227V46.0222L23.0582 41.9255C23.6595 41.6547 24.107 41.2921 24.4008 40.8377C24.6992 40.3787 24.8483 39.8072 24.8483 39.1233C24.8483 38.1594 24.527 37.4135 23.8844 36.8856C23.2418 36.3578 22.3284 36.0938 21.1442 36.0938H17.4193V46.1185H19.4848V42.4488ZM21.151 40.7757H19.4848V37.7669H21.1442C21.6996 37.7669 22.1104 37.9023 22.3766 38.1731C22.6474 38.444 22.7828 38.8157 22.7828 39.2885C22.7828 39.7521 22.6405 40.117 22.3559 40.3833C22.0713 40.6449 21.6697 40.7757 21.151 40.7757ZM33.6268 37.7669H30.5561V46.1185H28.4906V37.7669H25.4611V36.0938H33.6268V37.7669ZM40.9044 46.1185H42.9699V36.0938H40.9044V40.156H36.8766V36.0938H34.8111V46.1185H36.8766V41.8222H40.9044V46.1185ZM46.8462 44.4592H51.2321V46.1185H44.7807V36.0938H46.8462V44.4592ZM52.554 46.1185H54.6195V36.0938H52.554V46.1185ZM64.6924 46.1185H62.6269L58.606 39.5226V46.1185H56.5405V36.0938H58.606L62.6338 42.7035V36.0938H64.6924V46.1185Z" fill="#263238"/>
</svg>
